<?xml version='1.0' encoding='utf-8'?>
<svg xmlns="http://www.w3.org/2000/svg" width="1190.6px" height="841.89px" enable-background="new 0 0 1190.55 841.89" version="1.1" viewBox="0 0 1190.55 841.89">
			<radialGradient id="ad" cx="653.09" cy="502.41" r="439.64" gradientTransform="matrix(2.3794 0 0 1.6891 -949.96 -424.4)" gradientUnits="userSpaceOnUse">
			<stop stop-color="#fff" offset=".0667"/>
			<stop stop-color="#EDF1F2" offset=".2145"/>
			<stop stop-color="#BFCDD0" offset=".5101"/>
			<stop stop-color="#76939A" offset=".9226"/>
			<stop stop-color="#67878F" offset="1"/>
		</radialGradient>
		<rect x=".87" y="-2.653" width="1189.7" height="844.54" fill="url(#ad)"/>
		<g opacity=".3">
				<radialGradient id="ae" cx="590.59" cy="653.61" r="157.65" gradientTransform="matrix(1.0071 .0017 .0017 1.604 -5.0083 -400.72)" gradientUnits="userSpaceOnUse">
				<stop stop-color="#A4DCF3" offset="0"/>
				<stop stop-color="#27AAE1" offset=".7091"/>
				<stop stop-color="#1C75BC" offset="1"/>
			</radialGradient>
			<radialGradient id="af" cx="590.2" cy="653.17" r="151.41" gradientTransform="matrix(1.0067 .0016 .0016 1.5663 -4.3149 -375.25)" gradientUnits="userSpaceOnUse">
				<stop stop-color="#9AD0EC" offset="0"/>
				<stop stop-color="#25A1DB" offset=".7091"/>
				<stop stop-color="#1B6FB8" offset="1"/>
			</radialGradient>
			<path d="m806.01 648.15c0.034 11.612-96.249 21.295-215.06 21.628-118.82 0.329-215.16-8.812-215.19-20.43-0.031-11.605 96.257-21.291 215.07-21.623 118.81-0.33 215.15 8.815 215.18 20.425z" fill="url(#af)" opacity=".0625"/>
				<radialGradient id="ag" cx="590.62" cy="653.25" r="145.16" gradientTransform="matrix(1.0062 .0015 .0015 1.5285 -4.3809 -350.54)" gradientUnits="userSpaceOnUse">
				<stop stop-color="#90C3E4" offset="0"/>
				<stop stop-color="#2398D4" offset=".7091"/>
				<stop stop-color="#1969B4" offset="1"/>
			</radialGradient>
			<path d="m797.03 648.26c0.033 10.988-92.232 20.153-206.09 20.474-113.86 0.314-206.18-8.332-206.21-19.325-0.029-10.982 92.24-20.15 206.1-20.469 113.86-0.317 206.17 8.333 206.2 19.32z" fill="url(#ag)" opacity=".125"/>
				<radialGradient id="ah" cx="590.23" cy="652.78" r="138.9" gradientTransform="matrix(1.0058 .0014 .0014 1.4908 -3.6865 -325.06)" gradientUnits="userSpaceOnUse">
				<stop stop-color="#86B7DD" offset="0"/>
				<stop stop-color="#218ECE" offset=".7091"/>
				<stop stop-color="#1863B0" offset="1"/>
			</radialGradient>
			<path d="m788.05 648.37c0.032 10.365-88.216 19.014-197.11 19.32-108.9 0.3-197.2-7.852-197.23-18.221-0.027-10.358 88.223-19.01 197.12-19.313 108.9-0.303 197.19 7.853 197.22 18.214z" fill="url(#ah)" opacity=".1875"/>
				<radialGradient id="ai" cx="590.66" cy="652.85" r="132.65" gradientTransform="matrix(1.0053 .0013 .0013 1.453 -3.7524 -300.35)" gradientUnits="userSpaceOnUse">
				<stop stop-color="#7CABD5" offset="0"/>
				<stop stop-color="#1F85C8" offset=".7091"/>
				<stop stop-color="#165EAC" offset="1"/>
			</radialGradient>
			<path d="m779.07 648.48c0.029 9.741-84.201 17.872-188.14 18.165-103.94 0.287-188.22-7.371-188.24-17.115-0.026-9.735 84.206-17.869 188.14-18.16 103.94-0.289 188.21 7.373 188.24 17.11z" fill="url(#ai)" opacity=".25"/>
				<radialGradient id="aj" cx="590.27" cy="652.34" r="126.37" gradientTransform="matrix(1.0049 .0012 .0012 1.4153 -3.0581 -274.87)" gradientUnits="userSpaceOnUse">
				<stop stop-color="#729ECE" offset="0"/>
				<stop stop-color="#1C7CC1" offset=".7091"/>
				<stop stop-color="#1558A8" offset="1"/>
			</radialGradient>
			<path d="m770.1 648.59c0.028 9.116-80.184 16.731-179.16 17.01-98.98 0.273-179.24-6.891-179.26-16.01-0.025-9.112 80.188-16.729 179.17-17.006 98.976-0.275 179.23 6.893 179.26 16.006z" fill="url(#aj)" opacity=".3125"/>
				<radialGradient id="ak" cx="590.69" cy="652.41" r="120.11" gradientTransform="matrix(1.0044 .0011 .0011 1.3775 -3.124 -250.17)" gradientUnits="userSpaceOnUse">
				<stop stop-color="#6892C6" offset="0"/>
				<stop stop-color="#1A73BB" offset=".7091"/>
				<stop stop-color="#1352A4" offset="1"/>
			</radialGradient>
			<path d="m761.12 648.7c0.027 8.493-76.167 15.592-170.19 15.856-94.021 0.26-170.26-6.41-170.28-14.906-0.023-8.487 76.172-15.587 170.19-15.85 94.019-0.261 170.25 6.411 170.27 14.9z" fill="url(#ak)" opacity=".375"/>
				<radialGradient id="al" cx="590.3" cy="651.86" r="113.82" gradientTransform="matrix(1.004 .001 .001 1.3398 -2.4297 -224.69)" gradientUnits="userSpaceOnUse">
				<stop stop-color="#5E86BF" offset="0"/>
				<stop stop-color="#186AB5" offset=".7091"/>
				<stop stop-color="#124CA0" offset="1"/>
			</radialGradient>
			<path d="m752.14 648.81c0.025 7.87-72.152 14.45-161.21 14.702-89.062 0.246-161.28-5.93-161.3-13.802-0.021-7.864 72.154-14.446 161.22-14.695 89.058-0.248 161.27 5.929 161.29 13.795z" fill="url(#al)" opacity=".4375"/>
				<radialGradient id="t" cx="590.75" cy="652.55" r="107.53" gradientTransform="matrix(1.0036 8e-4 8e-4 1.302 -2.5132 -200.74)" gradientUnits="userSpaceOnUse">
				<stop stop-color="#557AB8" offset="0"/>
				<stop stop-color="#1661AF" offset=".7091"/>
				<stop stop-color="#11469C" offset="1"/>
			</radialGradient>
			<path d="m743.16 648.92c0.024 7.245-68.135 13.31-152.24 13.547-84.102 0.232-152.29-5.449-152.31-12.696-0.02-7.241 68.137-13.306 152.24-13.541 84.1-0.235 152.29 5.449 152.31 12.69z" fill="url(#t)" opacity=".5"/>
				<radialGradient id="u" cx="591.17" cy="651.97" r="101.24" gradientTransform="matrix(1.0031 7e-4 7e-4 1.2643 -2.5796 -175.26)" gradientUnits="userSpaceOnUse">
				<stop stop-color="#4B6DB0" offset="0"/>
				<stop stop-color="#1457A8" offset=".7091"/>
				<stop stop-color="#0F4098" offset="1"/>
			</radialGradient>
			<path d="m734.18 649.03c0.022 6.621-64.119 12.169-143.26 12.392-79.143 0.219-143.31-4.969-143.33-11.591-0.02-6.618 64.12-12.165 143.26-12.387 79.141-0.22 143.31 4.969 143.33 11.586z" fill="url(#u)" opacity=".5625"/>
				<radialGradient id="v" cx="590.78" cy="652.04" r="94.928" gradientTransform="matrix(1.0027 6e-4 6e-4 1.2265 -1.8848 -150.56)" gradientUnits="userSpaceOnUse">
				<stop stop-color="#4161A9" offset="0"/>
				<stop stop-color="#124EA2" offset=".7091"/>
				<stop stop-color="#0E3A94" offset="1"/>
			</radialGradient>
			<path d="m725.2 649.14c0.021 5.996-60.102 11.027-134.28 11.237-74.184 0.205-134.33-4.488-134.35-10.486-0.017-5.995 60.103-11.024 134.29-11.231 74.182-0.208 134.33 4.486 134.35 10.48z" fill="url(#v)" opacity=".625"/>
				<radialGradient id="w" cx="591.2" cy="651.4" r="88.623" gradientTransform="matrix(1.0022 5e-4 5e-4 1.1888 -1.9502 -125.08)" gradientUnits="userSpaceOnUse">
				<stop stop-color="#3755A1" offset="0"/>
				<stop stop-color="#10459C" offset=".7091"/>
				<stop stop-color="#0C3490" offset="1"/>
			</radialGradient>
			<path d="m716.22 649.25c0.02 5.374-56.086 9.888-125.31 10.084-69.224 0.191-125.35-4.008-125.37-9.383-0.015-5.37 56.086-9.883 125.31-10.077 69.223-0.193 125.35 4.007 125.36 9.376z" fill="url(#w)" opacity=".6875"/>
				<radialGradient id="x" cx="590.81" cy="651.46" r="82.301" gradientTransform="matrix(1.0018 4e-4 4e-4 1.151 -1.2568 -100.37)" gradientUnits="userSpaceOnUse">
				<stop stop-color="#2D489A" offset="0"/>
				<stop stop-color="#0E3C95" offset=".7091"/>
				<stop stop-color="#0B2F8C" offset="1"/>
			</radialGradient>
			<path d="m707.24 649.36c0.019 4.749-52.069 8.747-116.34 8.929-64.265 0.178-116.37-3.527-116.38-8.277-0.014-4.747 52.069-8.742 116.34-8.922 64.265-0.18 116.37 3.525 116.38 8.27z" fill="url(#x)" opacity=".75"/>
				<radialGradient id="y" cx="591.24" cy="650.76" r="75.98" gradientTransform="matrix(1.0013 3e-4 3e-4 1.1133 -1.3223 -74.891)" gradientUnits="userSpaceOnUse">
				<stop stop-color="#233C92" offset="0"/>
				<stop stop-color="#0B338F" offset=".7091"/>
				<stop stop-color="#092988" offset="1"/>
			</radialGradient>
			<path d="m698.26 649.47c0.017 4.125-48.053 7.605-107.36 7.773-59.306 0.164-107.39-3.047-107.4-7.172-0.013-4.124 48.051-7.602 107.36-7.768 59.305-0.165 107.39 3.046 107.4 7.167z" fill="url(#y)" opacity=".8125"/>
				<radialGradient id="z" cx="590.84" cy="650.79" r="69.643" gradientTransform="matrix(1.0009 2e-4 2e-4 1.0755 -.6279 -50.186)" gradientUnits="userSpaceOnUse">
				<stop stop-color="#19308B" offset="0"/>
				<stop stop-color="#092989" offset=".7091"/>
				<stop stop-color="#082384" offset="1"/>
			</radialGradient>
			<path d="m689.28 649.58c0.014 3.502-44.037 6.466-98.385 6.62-54.346 0.15-98.412-2.566-98.42-6.067-0.011-3.5 44.034-6.461 98.385-6.613 54.346-0.153 98.41 2.564 98.42 6.06z" fill="url(#z)" opacity=".875"/>
				<radialGradient id="aa" cx="591.27" cy="650.02" r="63.306" gradientTransform="matrix(1.0004 1e-4 1e-4 1.0378 -.6943 -24.705)" gradientUnits="userSpaceOnUse">
				<stop stop-color="#0F2383" offset="0"/>
				<stop stop-color="#072082" offset=".7091"/>
				<stop stop-color="#061D80" offset="1"/>
			</radialGradient>
			<path d="m680.3 649.69c0.013 2.878-40.021 5.325-89.409 5.466-49.387 0.137-89.432-2.086-89.438-4.963-9e-3 -2.877 40.017-5.32 89.409-5.459 49.386-0.138 89.43 2.084 89.438 4.956z" fill="url(#aa)" opacity=".9375"/>
			<path d="m671.32 649.8c0.012 2.254-36.004 4.184-80.434 4.311-44.428 0.123-80.451-1.605-80.455-3.857-8e-3 -2.254 36-4.18 80.433-4.305 44.428-0.126 80.45 1.603 80.456 3.851z" fill="#05177C"/>
		</g>
					<radialGradient id="ab" cx="595.97" cy="380.28" r="244.52" gradientUnits="userSpaceOnUse">
						<stop stop-color="#27AAE1" offset="0"/>
						<stop stop-color="#25A5DD" offset=".1256"/>
						<stop stop-color="#2196D0" offset=".281"/>
						<stop stop-color="#197CBB" offset=".4519"/>
						<stop stop-color="#0E599E" offset=".6341"/>
						<stop stop-color="#012D78" offset=".8233"/>
						<stop stop-color="#002A76" offset=".8342"/>
						<stop stop-color="#03357F" offset=".8585"/>
						<stop stop-color="#0C5297" offset=".9009"/>
						<stop stop-color="#1A80BE" offset=".9561"/>
						<stop stop-color="#27AAE1" offset="1"/>
					</radialGradient>
					<path d="m801.18 410.52c0 116.71-94.609 211.31-211.32 211.31-116.7 0-211.31-94.607-211.31-211.31 0-116.71 94.609-211.32 211.31-211.32 116.71 0 211.32 94.609 211.32 211.32z" fill="url(#ab)"/>
					<radialGradient id="ac" cx="584.75" cy="360.75" r="247.82" gradientUnits="userSpaceOnUse">
						<stop stop-color="#27AAE1" offset="0"/>
						<stop stop-color="#2AABE1" offset=".1987"/>
						<stop stop-color="#33AEE1" offset=".3466"/>
						<stop stop-color="#44B3E2" offset=".4781"/>
						<stop stop-color="#5ABAE3" offset=".6001"/>
						<stop stop-color="#78C4E4" offset=".7154"/>
						<stop stop-color="#9CCFE5" offset=".8259"/>
						<stop stop-color="#C6DDE7" offset=".9305"/>
						<stop stop-color="#E6E7E8" offset="1"/>
					</radialGradient>
					<path d="m792.66 468.76c-2.793 0.064-6.424 1.379-6.479 2.33-0.049 0.961-3.891 2.68-5.162 3.193-1.27 0.516-3.73 4.443-4.279 5.732-0.531 1.297-3.67 0.906-4.84 1.436-1.146 0.508-3.543 2.432-3.561 3.598-6e-3 1.143-0.652 1.025-1.434-0.297l-1.525 1.609c-1.801 2.006-1.801 2.006-1.801 2.006-1.047 3.258-4.484 7.355-5.67 7.707-1.188 0.326-1.389 6.047-1.389 8.338 0 2.312 0.887 5.148 1.986 6.318l0.24 1.824 0.395 3.645c-0.635 2.807 1.502 5.322 2.133 5.818 0.611 0.475 5.85-0.943 7.85-1.428 0.838-0.193 0.737-0.207 1.722-0.699 9.357-15.66 17.133-33.09 22.217-51.02-0.388-0.073-0.055-0.128-0.403-0.11zm-349.58 5.426c-0.291 0.566 3.484 4.457 4.961 5.771 1.461 1.34 4.576 7.684 5.211 9.771 0.631 2.088 0.26 5.498 0.051 6.303-0.193 0.803 0.709 2.562 0.871 3.299 0.121 0.73-1.309 6.961-0.758 9.469 0.549 2.5-2.93 10.322-2.857 14.195 0.09 3.885 1.84 8.943 2.551 8.564 0.701-0.373 0.951 3.535-0.234 3.998-1.186 0.479-2.559 3.557-1.896 3.725 0.662 0.162-0.049 3.203 0.137 4.428 0.178 1.223 1.211 9.285 1.428 11.285 0.227 2.01 3.092 6.906 3.705 8.562 0.596 1.672 1.209 4.811 1.443 5.285 0.234 0.49 0.525 0.98 0.557 1.002 0.055 0.014 2.363 0.873 3.025 1.379 0.688 0.5 5.213 0.189 6.695-0.119 1.486-0.303 0.121-1.654-0.539-2.385-0.67-0.742-1.26-4.318-2.033-4.689-0.768-0.348-1.09-4.912-0.42-5.914 0.68-1.014 3.391-2.621 3.688-3.467 0.275-0.848 0.363-4.816-0.355-5.365-0.734-0.543 0.219-5.363-0.34-7.756-0.539-2.387 4.156-4.566 4.439-6.463 0.266-1.895 5.357-3.938 6.518-4.881 1.146-0.957 2.148-6.383 1.6-7.564-0.559-1.158 1.887-2.111 2.977-2.111 1.072 0 2.291-0.775 2.711-0.775 0.412-0.014 1.701-2.414 2.396-2.967 0.701-0.557 2.137-6.293 3.398-7.232 1.264-0.947 2.305-4.408 2.305-5.436 0-1.008 1.938-4.037 2.574-4.945 0.629-0.91 5.383-3.088 6.238-3.43 0.846-0.354 2.137-7.988 2.469-10.732 0.33-2.736 1.758-6.404 1.863-7.299 0.088-0.91 1.613-1.676 1.889-1.963 0.291-0.285 1.426-3.783 2.152-4.588 0.727-0.799 3.357-4.125 3.42-4.879 0.059-0.746 0.455-2.646 0.898-4.242l-0.018-1.861 0.023-2.977c-0.838-2.301-3.387-5.182-4.033-4.543-0.652 0.629-3.598-2.037-5.09-2.605-1.51-0.549-5.246-1.018-6.197-1.018-0.943 0-4.219-2.68-5.688-3.15-1.461-0.449-5.197-1.166-5.891-1.607-0.678-0.438-1.598-6-4.615-7.812-3.008-1.828-8.285-6.066-8.875-7.635-0.58-1.549-6.357-4.822-8.166-5.803-1.775-0.988-4.486-1.225-4.816-0.861-0.355 0.332-2.582-3.023-3.719-3.982-1.162-0.93-4.625-1.725-4.785-0.877-0.16 0.854-2.453 0.408-3.002-0.322-0.531-0.715-2.322 0.293-3.162 0.576-0.83 0.262-3.719 4.656-5.027 5.721-1.338 1.043-2.912-0.977-3.783-1.365-0.873-0.369-4.188 0.662-5.1 1.309-0.904 0.635-3-4.656-2.5-7.096 0.475-2.438-2.186-7.287-4.262-7.412-2.041-0.113-2.693-5.221-2.283-7.096 0.412-1.875-3.719-3.049-4.752-3.176-1.057-0.145-3.623 2.51-4.059 3.775-0.443 1.268-9.812-1.727-8.697-7.348 1.082-5.612 5.527-11.427 6.633-12.116 1.105-0.672 7.123-1.021 8.455-0.266 1.34 0.774 2.541-0.012 2.768-0.351 0.217-0.347 5.131 0.06 6.607 0.657 1.453 0.592 3.559 6.264 5.076 6.958 1.531 0.711 2.08-3.661 2.322-4.72 0.252-1.064-0.742-3.76-1.105-4.518-0.379-0.759 2.438-7.638 4.746-8.803 2.273-1.182 4.703-5.007 4.525-5.684-0.211-0.67 1.824-1.202 2.363-1.496 0.559-0.271-0.072-5.839 0.824-7.049 0.92-1.199 5.221-3.748 6.584-4.324 1.361-0.577 2.389-4.091 1.904-4.697-0.5-0.629 3.518-4.053 5.605-4.715 2.09-0.638 3.898 1.206 3.381 1.492 0.412-0.234 3.293-1.727 4.52-2.529 1.434-0.947 0.025-3.554-0.904-4.328-0.912-0.747-0.363-3.769 0.742-4.047 1.115-0.271 2.09-2.88 1.791-3.441-0.299-0.577 4.6 0.452 6.463-0.936 1.832-1.381 0.533 3.316-0.84 5.208-1.346 1.894 1 3.684 1.881 3.329 0.871-0.372 1.801 0.996 1.984 1.532 0.178 0.527 2.059-0.554 3.285-0.017 1.24 0.544 1.961-1.693 2.072-2.711 0.082-1.032-2.953-3.157-3.428-4.389-0.469-1.231-0.678-8.407-0.734-9.884-0.072-1.47-2.041-3.853-2.678-3.425-0.631 0.403-1.932-3.82-2.945-4.736-1.043-0.916-1.26-2.945-1.229-3.623 0.049-0.686-3.469-4.361-4.314-6.062-0.84-1.699-2.025-1.356-2.105-0.582-0.09 0.783-2.527 0.888-3.535 0.795-1.01-0.093-1.832-3.974-1.832-5.442 0-1.465-4.527-1.714-5.275-2.904-0.744-1.174-3.697-0.621-4.172-1.437-0.484-0.814-3.098-1.569-3.598-1.271-0.541 0.311-0.283 10.841-0.783 13.68-0.502 2.845-2.906 5.342-3.793 5.269-0.863-0.06-0.346 2.025 0.258 1.836 0.623-0.186-1.703 3.106-2.008 5.26-0.307 2.151-2.494-0.092-2.85-2.049-0.363-1.956-2.5-4.606-2.904-3.933-0.41 0.661-1.879-0.799-2.525-0.388-0.629 0.424-4.68-2.348-6.311-3.243-1.629-0.863-2.547-5.883-3.477-6.317-0.951-0.452-0.152-1.045-0.193-1.812-0.023-0.755 3.162-3.675 4.133-4.821 0.959-1.173 4.461-5.721 5.848-6.696 1.395-0.988 2.477-3.59 2.244-4.083-0.242-0.459 5.938-2.396 7.615-2.977 1.664-0.573 3.123-5.245 3.348-6.583 0.227-1.349-1.055-3.882-1.822-4.217-0.789-0.331 2.332-0.448 3.357 0.072 1.039 0.504 4.227-0.948 5.494-0.278 1.242 0.661 3.801 2.175 5.639 3.34l-0.395 3.43-0.75 5.809c-4.873 2.021-6.279 5.508-4.576 5.436 1.711-0.086 9.49 3.368 11.691 4.945 2.195 1.572 2.889-2.279 3.533-3.57 0.654-1.259 0.445-4.993-0.078-5.733-0.533-0.741 2.539-0.479 3.404 0.348 0.863 0.822 1.871-0.851 2.541-1.146 0.66-0.303 0.982-3.495 1.355-4.135 0.34-0.658-1.461-1.309-1.518-2.098-0.057-0.815-3.559-2.324-4.688-2.872-1.146-0.545-1.404-2.954-0.848-3.369 0.557-0.424-0.387-3.494-0.951-4.507-0.541-1.017-4.211-1.839-5.43-1.839-1.211 0-2.469-2.825-3.172-3.241-0.701-0.398-5.396-0.915-6.543-0.575-1.162 0.338-3.291-3.324-5.246-2.207-1.959 1.114-3.969-1.312-4.855-1.799-0.895-0.48-5.471 4.441-5.438 7.891 0.055 3.474 1.791 6.813 2.508 6.911 0.719 0.101-0.168 3.224-0.967 4.118-0.791 0.883-2.719-0.94-1.986-1.73 0.711-0.779-1.992-4.405-2.928-5.874-0.67-1.065-3.049-2.013-4.664-2.654-0.951 1.024-1.871 2.069-2.783 3.118 0.355 1.259 0.773 2.893 0.371 4.135-0.678 2.111-2.445 2.433-2.549 1.518-0.049-0.404-1.223-0.913-2.27-1.049-25.969 31.234-42.445 69.072-47.328 110.86 1.025 1.169 2.18 2.551 2.486 3.542 0.588 1.856 3.816 3.086 4.43 3.456 0.588 0.369 0.805-3.558 0.369-4.586-0.41-1.017 0.791-1.63 0.76-0.88-0.025 0.756 3.049 4.208 4.051 5.466 1.016 1.243 2.057 9.329 3.025 11.053 0.961 1.732 10.279 5.331 13.289 5.958 2.992 0.637 6.777 3.99 7.373 4.959 0.572 0.971 4.559 1.461 5.416 1.842 0.871 0.404 2.902 3.104 3.758 3.658 0.84 0.57 1.518 2.172 1.518 2.604 0 0.428 5.26 2.418 6.535 3.824 1.275 1.408 3.389 1.023 3.785 0.432 0.402-0.596 1.434 2.801 1.982 3.965 0.533 1.176 0.67 4.053 0.25 4.516-0.41 0.443-1.16 5.744-2.064 6.803-0.895 1.062-2.758 8.758-2.355 10.268 0.412 1.531 2.873 4.664 3.945 5.137 1.057 0.467 0.605 2.109-0.227 2.225-0.846 0.102-0.451 7.453 1.525 8.547 1.988 1.073 3.652 4.325 3.361 4.894zm24.916-128.96l0.014-9e-3c-0.071 0.033-0.08 0.041-0.014 9e-3zm-14.469-89.3c2.533-0.42 6.746-1.122 7.045-1.836 0.201-0.585 0.232-2.328-0.242-2.933 0.402 0.027 0.871 0.04 1.227 0.04 0.959 0 2.566-5.268 3.574-6.503 1.016-1.234 6.809-3.046 8.189-3.877 1.387-0.847 4.406-3.748 5.559-4.087 1.17-0.351 2.855-3.053 2.598-3.606-0.25-0.531 3.922-3.075 5.52-3.743 1.572-0.673 2.404-2.534 1.805-2.606-0.377-0.053-9.221 4.574-17.32 9.165-9.248 6.277-17.928 13.293-26.055 20.918 2.526-0.186 6.446-0.65 8.1-0.932zm153.12 263.51c2.711-1.596 7.318-8.408 8.826-9.834 1.516-1.439 2.613-6.588 2.938-7.715 0.297-1.129 2.605-2.951 3.467-3.193 0.85-0.244 3.607-11.662 6.014-14.152 2.402-2.498 5.236-14.561 4.936-18.912-0.307-4.326 1.551-12.6 2.115-14.588 0.58-1.984 3.598-5.52 4.543-6.248 0.926-0.74 6.744-9.348 8.631-12.43 1.857-3.092 3.648-9.871 3.293-11.459-0.354-1.594-4.414-2.697-5.17-1.916-0.752 0.789-4.568 1.434-5.787 1.434-1.217 0-4.018-6.535-5.752-7.883-1.727-1.336-3.291-8.825-4.293-10.241-1-1.416-3.793-5.002-4.67-5.82-0.873-0.816-2.6-7.854-2.801-8.943-0.186-1.078 3.268 3.782 3.59 5.352 0.332 1.585 4.809 7.962 6.197 10.105 1.389 2.156 5.051 8.985 5.979 11.131 0.936 2.125 9.078 1.053 11.717-0.188 2.645-1.258 5.93-3.367 6.059-4.1 0.113-0.742 4.332-2.677 5.492-3.608 1.172-0.938 2.213-5.834 2.973-6.611 0.766-0.803-0.615-5.467-1.494-6.855-0.871-1.391-5.1-2.501-5.939-1.957-0.863 0.547-2.678-3.13-3.332-4.479-0.645-1.358-6.814-3.809-7.178-4.729-0.33-0.945 2.117-2.623 2.625-2.938 0.508-0.326 8.176 4.88 9.895 6.957 1.695 2.077 3.656 5.895 3.994 6.567 0.299 0.658 5.01 1.001 6.059 0.23 1.041-0.775 2.252-0.569 2.662 0.428l1.477-0.262c5.156-0.795 5.156-0.795 5.156-0.795 2.445 2.638 3.146 4.93 3.09 5.461-0.047 0.506 1.492 2.654 2.494 2.885 1 0.23 1.734 3.605 2.041 4.441 0.291 0.834 3.236 5.881 3.832 8.014 0.605 2.121 3.115 6.266 3.719 7.381 0.582 1.111 1.09 4.328 1.09 5.203 0 0.879 1.881 2.613 3.057 2.527 1.164-0.072 3.535-7.465 4.094-10.215 0.531-2.748 2.436-5.014 2.969-5.014 0.549 0 0.975-1.547 0.975-2.135 0-0.574 2.986-0.518 3.26-1.268 0.252-0.752 1.139-5.631 2.203-6.375 1.074-0.742 4.85-3.223 6.188-3.686 1.316-0.457 4.705 2.469 5.471 3.832 0.752 1.359 1.438 4.84 1.146 5.403-0.281 0.572 1.783 3.568 3.607 3.512 1.789-0.051 2.363 2.293 2.41 3.137 0.082 0.846 2.455 3.266 2.93 4.35 0.461 1.082 0.332 4.029 0.016 4.699-0.33 0.67-0.111 4.533 0.236 5.623 0.346 1.072 5.904 6.709 7.979 8.418 2.09 1.705 3.066-3.475 1.994-5.094-1.059-1.611-4.682-5.373-5.537-6.486-0.855-1.131-1-5.633-0.678-6.881 0.309-1.27 3.172 0.691 4.357 1.6 1.186 0.916 2.744 2.941 2.785 3.625 0.041 0.668 7.486-3.5 7.736-8.031 0.273-4.52 2.744-9.622 2.986-10.807 0.248-1.197-0.734-2.838-1.359-2.881-0.635-0.062 1.107-3.453 3.189-3.4 2.09 0.068 7.115-5.536 8.301-7.75 1.188-2.223 3.584-4.049 3.852-4.331 0.289-0.259 1.961-5.515 2.252-7.69 0.281-2.171-1.23-5.562-1.406-6.688-0.178-1.118-1.977-3.703-2.453-4.519-0.451-0.807-0.895-3.852-0.605-4.422 0.266-0.557 2.154-1.165 2.348-1.666 0.211-0.52 2.357-2.812 2.203-3.82-0.16-1.02 1.34 1.307 2.324 2.143 0.984 0.839 2.051 6.234 3.283 6.831 1.201 0.592 6.148-5.722 5.535-9.796-0.605-4.082 1.436-9.295 2.625-9.764 0.9-0.35 3.227-3.646 4.807-6.014-10.773-31.665-28.634-59.476-51.886-82.234-0.275 0.021-0.808 0.085-1.065 0.033-1.809-0.392-1.809-0.392-1.809-0.392-3.043-0.646-4.809-3.894-4.293-4.644 0.178-0.237 0.363-0.878 0.209-1.527-1.686-1.525-3.478-3.028-5.245-4.496-1.426-0.044-3.114 0.102-3.991 0.058-1.824-0.065-5.77-1.36-6.473-2.066-0.717-0.702-3.098 0.621-3.227 1.937-0.16 1.319-4.309 1.924-4.686 2.929-0.422 0.992-2.551 1.069-2.963 0.501-0.41-0.557-4.26 1.355-6.172 1.642-1.912 0.266-5.471 1.819-6.326 2.198-0.855 0.375-2.881 2.36-3.211 3.176-0.324 0.826-2.783 2.198-3.566 2.518-0.799 0.31-0.637 3.881 0.387 4.389 1.01 0.492-1.896-0.432-3.172-1.098-1.299-0.634-2.711 1.53-3.105 2.279-0.412 0.742-1.582-0.452-1.533-1.508 0.041-1.082-3.17-1.938-3.59-1.086-0.438 0.853-2.654-0.278-3.574-0.763-0.928-0.492-4.906 3.667-6.383 5.165-1.477 1.483-8.543 2.642-9.867 2.081-1.324-0.553-2.621 3.126-1.492 3.381 1.113 0.218-2.873-0.19-5.061 0.015-2.201 0.219-8.582 2.771-10.1 3.906-1.541 1.137-2.76-0.251-2.76-1.125 0-0.872-2.43-1.68-3.156-1.926-0.709-0.241-2.137 4.777-3.395 5.742-1.268 0.983-2.791-3.918-5.77-4.721-2.977-0.803-7.633-3.684-8.963-4.022-1.309-0.351-3.971-3.135-4.721-3.938-0.75-0.807-4.559-1.468-5.777-1.468-1.227 0-5.172 2.263-6.221 3.146-1.09 0.896-2.662 0.718-3.188 1.04-0.525 0.314-4.994 4.688-6.713 6.053-1.732 1.367-4.76 7.252-5.729 8.661-1.006 1.399-2.412 1.661-2.994 1.702-0.58 0.027-1.055 1.598-1.055 2.17 0 0.586-5.125 3.248-5.656 5.575-0.543 2.319 0.498 7.633 0.498 9.525 0 1.887 1.906 5.631 3.324 5.695 1.412 0.068 0.678 3.207 0.301 4.087-0.371 0.888 0.895 1.848 0.854 2.599-0.033 0.754-3.59 1.803-4.686 2.23-1.115 0.403-2.881 2.889-3.123 3.808-0.193 0.815-5.709 2.15-6.84 3.232 0.277-0.783 2.764-2.627 3.07-3.232 0.654-1.237-0.25-3.404-0.781-3.849-0.541-0.451-0.791-6.611-1.654-7.922-0.863-1.332-3.02-3.567-3.551-4.002-0.533-0.425 0.626-2.203 0.933-2.893 0.314-0.682-2.844-1.526-3.717-1.014-0.465 0.265-6.14 2.056-6.42 3.987-0.245 1.688 5.237 3.785 5.068 4.562-0.355 1.666 0.94 4.547 1.474 4.66 0.508 0.129 0.371 3.13-0.742 3.223-1.121 0.113-1.439 3.729-0.867 4.729 0.574 1.001-1.938 2.938-2.158 4.183-0.138 0.779 3.141-0.805 5.408-0.87 2.252-0.057 4.484-1.932 4.25-1.75-0.242 0.19-3.648 4.681-4.381 5.646-0.727 0.964-3.494 2.828-4.035 3.578-0.533 0.735 0.912 2.385 2.09 2.308 1.17-0.069 2.5 4.054 3.422 4.813 0.91 0.775 0.57 2.904 0.184 3.497-0.428 0.576-5.93-0.396-8.02 0.121-2.105 0.517-4.752 4.95-4.93 6.615-0.193 1.682 0.338 6.483 0.623 7.815 0.256 1.318 4.645 2.157 5.525 2.806 0.912 0.639 2.77-0.101 3.657 0.304 0.848 0.42 6.128-1.701 6.582-6.3 0.22-2.23 5.027-6.142 5.955-7.623 0.928-1.466 5.752-1.297 6.938-2.076 1.188-0.754 2.506-3.244 3.078-0.816 0.564 2.441 1.062 1.75 2.375 2.375 2.14 1.019 2.252 1.605 2.438 2.438 0.201 0.81 2.979 2.127 3.826 3.411 0.83 1.286 0.75 1.595 0.424 2.526-0.438 1.25-0.424 2.864 0.625 3.188 1.031 0.332 1.016-1.826 2.139-2.37 1.111-0.563 1.887-1.136 1.361-1.317-0.498-0.177-0.699-1.687-0.062-1 0.631 0.681-4.029-6.58-6.125-8.25-3.688-2.938 3.09-1.556 6.617 1.372l2.436 3.418c0.477 0.613 1.1 2.478 1.516 3.163l0.576 1.009c0.475 1.193 1.98 4.022 1.98 4.913 0 0.868 0.824 3.051 1.98 2.971 1.16-0.081 1.639-0.517 1.395-0.471-0.24 0.039-0.217 3.573 0.938 3.625 1.145 0.05 2.975-3.678 1.812-3.75-1.154-0.064-2.723-4.832-2.875-6.688-0.127-1.876 2.643-2.393 3.045-2.393 0.398 0-0.055 3.846-0.014 4.733 0.014 0.879 0.498 2.625 1.047 3.875l1.195 0.904 2.672 2.058c3.83-1.134 8.979-0.266 8.777 0.524-0.211 0.784 2.215 0.319 2.402-0.952 0.178-1.251 0.938 0.687 0.938 1.569 0 0.859-2.15 4.967-2.562 6.556-0.426 1.568-9.639-0.187-13.445-0.476-3.809-0.283-9.424 1.009-9.861 2.146-0.416 1.142-6.363-2.613-9.084-3.752-2.734-1.158-4.873-5.312-5.43-5.849-0.562-0.549 0.469-1.889 0.211-2.702-0.268-0.837-6.488-1.005-8.287-0.327-1.814 0.661-11 2.085-13.354 2.617-2.055 0.465-3.29-1.179-4.323-1.365-1.033-0.178-5.737 3.982-6.979 4.536-1.275 0.549-2.857 4.862-3.543 9.604l-1.695 3.301-1.096 2.11c-3.084 2.34-6.488 10.158-7.496 11.728-0.992 1.568-5.055 12.702-5.055 16.491 0 3.783 6.564 11.922 7.5 14.131 0.936 2.215 6.648 7.105 8.551 8.283 1.914 1.143 8.117 1.299 10.15 1.297 2.025-8e-3 4.35-1.941 5.133-4.293l2.984 0.299 1.363 0.141c0.074 1.666 4.471 3 5.553 3.582 1.072 0.588 3.977 0.15 4.832-0.107 0.871-0.244 1.832 7.525 1.201 9.777-0.613 2.244 1.533 10.127 2.162 12.504 0.639 2.375 3.334 8.861 3.615 11.189 0.252 2.334-1.59 10.078-1.896 12.785-0.297 2.725 3.381 10.305 4.367 12.916 0.951 2.607 1.74 8.221 1.74 9.518 0 1.305 4.037 9.154 4.947 12.377 0.933 3.242 11.043 4.033 13.754 2.443zm174.54-96.121c0.273 0.578 2.809-1.439 4.332-1.674 1.531-0.238 2.492-4.338 1.299-4.621-1.209-0.334-2.721-3.473-3.574-3.857-0.865-0.385-2.543 1.354-2.469 2.592 0.062 1.246-2.785 1.746-3.316 2.787-0.533 1.029-0.498 1.781 0.09 1.67 0.564-0.1 3.38 2.539 3.638 3.103zm-3.123 22.239c0.758-0.283-0.09-4.326-1.664-4.666-1.596-0.324-5.971 5.33-5.146 8.59 0.84 3.244 1.76 3.049 2.211 2.359 0.453-0.682 3.066 0.439 3.84 0.705 0.76 0.248 0.76-0.535 0-1.73-0.775-1.21 9e-3 -4.981 0.759-5.258zm-8.664-3.946c0.182-1.443 0.457-5.965 0.715-6.859 0.234-0.902-2.459-3.49-3.799-3.961-1.324-0.461-5.598 8.797-8.648 10.439-3.082 1.648-4.18 7.277-3.381 8.586 0.812 1.303 7.213 1.994 8.326 2.977 1.121 0.975 2.357-0.158 3.023-0.324 0.68-0.162 0.469-0.594 0.211-0.764-0.258-0.152 2.229-2.783 2.592-4.453 0.347-1.651 0.773-4.205 0.961-5.641zm-17.389 15.412c-2.404-0.9-5.213 0.516-5.43 1.436-0.244 0.928 9.236 2.43 12.377 3.283 3.123 0.857 5.082 1.129 4.371 0.6-0.716-0.533-8.922-4.408-11.318-5.319zm19.219-61.598c0.766-1.044-1.059-6.006-1.979-4.882-0.91 1.118-0.24 3.998 0.043 5.021 0.287 0.99 1.176 0.928 1.936-0.139zm5.713 10.639c0.547-1.275-0.68-2.688-2.729-3.123-2.057-0.422-1.75 5.741-0.846 6.528 0.885 0.765 3.008-2.116 3.575-3.405zm10.648 38.176c2.451 1.723 7.924 0.928 8.096-2.387-2.412-1.587-8.305-1.318-8.096 2.387zm-1.312-75.546c-1.025 0.714-1.559 2.524-1.242 3.263-0.146-0.012-0.277-0.016-0.424-0.016-0.812 0-0.908 3.227-0.037 3.784 0.832 0.549 2.912-2.522 3.992-3.253 1.074-0.733 3.242-1.181 3.568-0.942 0.338 0.233 2.234-0.344 4.232-1.264 0.355-0.169 0.768-0.698 1.195-1.448-0.477-2.359-1.047-4.685-1.613-7.015-1.016 0.758-2.17 1.564-2.701 2.037-1.084 0.986-5.64 3.938-6.97 4.854zm-55.963 64.993s0.021 0 0.033 0.012c-0.43-0.316-0.486-0.344-0.033-0.012zm15.255 14.204c-0.889-2.01-3.824-5.391-6.518-7.533l-1.025-1.682-1.115-1.852c-1.008-2.035-4.041-3.6-4.307-4.203-0.26-0.594-1.227 1.762-2.258 1.078 0.539 0.377 1.668 1.18 3.266 2.316 2.848 2.041 8.334 15.824 9.576 16.793 1.237 0.967 3.262-2.906 2.381-4.917zm-43.712-22.274c-0.76 1.561 4.057 4.871 4.428 4.111 0.396-0.76-0.613-4.574-1.477-5.428-0.846-0.829-2.178-0.236-2.951 1.317zm-63.967 73.656c0.193 1.643 3.518 2.936 4.469 2.67 0.994-0.27 3.672-5.225 4.043-6.646 0.379-1.436 0.686-4.498 0.686-5.234 0-0.713 0.445-2.363 0.814-2.574 0.355-0.184 0.977-1.879 1.348-3.725 0.371-1.889-1.994-10.58-2.064-12.1-0.059-1.537-1.783 0.785-2.219 2.332-0.469 1.539-4.785 4.693-5.754 6.004-0.951 1.309-2.016 5.752-1.637 6.523 0.354 0.764-0.379 3.791-0.824 4.631-0.411 0.85 0.968 6.469 1.138 8.119zm-156.08 60.184h2.902c0.518-3.148-3.064-2.627-2.902 0zm77.576-327.58c-1.219 0.149-4.375-0.488-4.922-1.069-0.533-0.573-5.277-1.086-6.633-0.517-1.371 0.573-0.436-3.328 1.471-3.747 1.895-0.433 0.281-3.119-1.736-3.119-2.033-0.016-7.02-0.75-8.189-0.487-1.178 0.255-3.469-0.819-4.301-0.941-0.84-0.12-6.834 1.792-9.666 1.65-2.848-0.121-9.811 0.161-11.312 0.585-1.533 0.396-2.621 3.353-2.404 4.39 0.227 1.06-6.736 1.032-8.922 1.064-2.195 0.036-13.869 2.518-16.912 4.195-3.049 1.671-5.43 5.954-4.422 6.043 1.01 0.082-1.693 2.511-3.332 3.083-1.637 0.557-5.541 0.808-6.471 1.727-0.912 0.916 0.984 1.55 1.348 2.175 0.355 0.601 1.445-0.54 2.492 0.053 1.018 0.581 4.422 0.854 5.316 1.201 0.914 0.36-2.879 1.078-4.662 1.211-1.783 0.12-1.381 3.622 0.072 4.103 1.453 0.496 5.195 1.009 5.576 0.403 0.387-0.609 4.445 0.657 6.285 0.876 1.814 0.192 3.229 4.784 3.775 5.78 0.564 0.989 0.686 4.482 0.541 5.494-0.121 1.005 3.236 2.849 3.85 2.207 0.588-0.641 0.418 1.582-0.922 1.465-1.338-0.117-0.467 3.764 1.203 4.325 1.646 0.552 0.518 2.94-0.436 3.671-0.969 0.713-0.443 2.997-1.428 3.82-0.969 0.811 3.484 8.528 3.453 12.51-0.025 3.962 2.453 7.206 3.396 7.206 0.951 0 4.211 0.794 4.646 1.649 0.428 0.847 2.002-0.59 2.631-1.243 0.605-0.646 1.945-2.562 2.945-4.236 1.002-1.689 3.234-9.646 3.541-10.501 0.301-0.858 4.035-0.318 4.891-0.758 0.846-0.439 3.299-2.367 3.992-2.941 0.695-0.573 6.027-2.832 7.498-3.884 1.441-1.038 3.871-5.563 5-6.524 1.139-0.976-0.58-0.686-2.008-1.617-1.402-0.928-0.783-2.065-0.371-2.497 0.402-0.444 4.705 0.714 6.188 1.283 1.486 0.588 4.309-1.453 3.236-2.252-1.105-0.782-0.523-0.758 0-0.427 0.518 0.322 1.072-2.61 0.51-3.163-0.576-0.568 4.348-4.155 3.477-7.549-0.855-3.392 1.348-6.869 2.662-6.914 1.33-0.036 0.936-3.828-0.645-4.184-1.574-0.351-0.09-0.702 0.5-1.243 0.588-0.532 1.338-3.921 1-4.566-0.355-0.662 2.42-1.392 2.896-2.162 0.5-0.766 3.662-2.283 4.793-2.533 1.115-0.259 1.719-3.229 0.51-3.095zm27.578 2.766c-1.502-0.516-4.566 1.159-4.182 2.102 0.406 0.961-2.484-1.21-4.502-0.173-2.016 1.054-2.564 4.578-1.645 5.043 0.928 0.456 1.605 3.264 1.621 3.8 0.033 0.557 3.922 0.157 4.914-0.657 0.977-0.819 0.848 2.849-0.121 3.832-0.984 0.993 0.348 2.978 1.43 3.143 1.08 0.15 2.557 2.703 3.67 2.671 1.105-0.023 3-4.3 3.438-5.909 0.436-1.586 4.131-0.332 5.832 0.182 1.688 0.494 2.316-5.896 0.477-6.863-1.822-0.947-4.121-0.476-4.889-1.207-0.752-0.737-2.049-1.414-2.904-1.548-0.848-0.123-1.647-3.903-3.139-4.416zm14.789 3.063c2.986 0.415 6.342-2.033 7.068-2.735 0.742-0.686-8.27-2.525-11.701-2.634-3.428-0.104-6.203 0.358-6.146 1.04 0.056 0.663 7.785 3.893 10.779 4.329zm-54.502 80.797c-0.783-0.331-1.219 2.622-1.041 3.743 0.186 1.121 2.938 1.025 4.115 0.827 1.17-0.197 2.072-1.149 2.033-2.126-0.066-0.964-1.727-5.369-2.387-5.369-0.663 0-1.921 3.232-2.72 2.925zm8.852-34.363c-0.615-1.089-5.301-0.952-6.447-1.025-1.129-0.063-4.639-1.229-5.311-1.976-0.645-0.743-1.168 2.884-2.227 3.36-1.08 0.463 0.525 1.153 0.969 0.77 0.428-0.387-0.031 1.868-0.516 2.639-0.477 0.774 3.123 1.319 3.533 2.485 0.396 1.17 1.881 1.925 3.301 1.706 1.412-0.242 4.236-1.699 5.229-1.795 1-0.102 2.09-5.084 1.469-6.164zm98.4-26.839c1.615-1.614 8.23-3.797 8.988-5.471 0.742-1.658-0.467-3.022-1.137-3.022s-1.502 0.839-1.646 1.103c-0.17 0.281-7.77 2.064-10.094 3.187-2.355 1.121-5.051 2.86-6.025 3.856-0.984 0.988-2.592 8.524-3.164 9.376-0.557 0.843 2.525 3.913 3.896 4.771 1.373 0.835 3.252 0.396 3.785 0.234 0.523-0.169-0.711-5.431-1.412-7.267-0.734-1.822 5.206-5.134 6.809-6.767zm-8.133-19.631c2.504 2.481 3.881-1.106 6.623-0.755-0.046-5.038-6.871-3.308-6.623 0.755zm48.629 0.939c-0.08 0.928 6.914 1.678 8.965 1.314 2.039-0.351-0.43-3.545-3.422-3.352-2.969 0.198-5.471 1.114-5.543 2.038zm-253.31 51.872c-0.734 0.686-0.09 4.119 1.314 4.22 1.396 0.097 3.631-5.18 5.35-4.119 1.711 1.057 2.873 1.477 2.592 0.913-0.291-0.554-5.174-2.692-5.777-3.097-0.608-0.362-2.722 1.425-3.479 2.083zm17.894 116.17c0 0.575 3.051 0.494 3.551-0.445 0.484-0.934 0.225-1.695-0.596-1.695-0.806-1e-3 -2.955 1.55-2.955 2.14zm-13.578-5.022c1.469-0.277 0.783 2.086 1.121 2.93 0.363 0.85 3.857 1.529 4.559 2.105 0.695 0.569 2.502-1.072 3.906-0.895 1.395 0.178-0.459-4.842-2.816-4.699-2.34 0.156-4.195-2.129-4.744-2.41-0.58-0.25-3.275-1.904-4.066-2.523-0.768-0.633-6.746-1.158-8.777-1.158-2.035 0-4.27 2.072-4.576 2.746-0.33 0.686 3.221 1.146 4.221 0.605 1.016-0.529 5.752 0.602 6.721 1.742 0.972 1.13 2.984 1.835 4.451 1.557zm-6.381 5.022c0 0.575 3.08 0.211 3.814 0.232 0.758 0.016 0.727-0.49-0.057-1.113-0.772-0.621-3.757 0.291-3.757 0.881zm2.18-15.856c-0.801-0.312-1.447 0.943-1.447 1.541 0 0.589 0.445 1.081 0.977 1.081 0.55 0 1.267-2.296 0.47-2.622zm6.453 0.499c-0.275-0.597-1.59-1.076-1.979-1.076-0.402 0-0.693 1.024-0.619 2.26 0.071 1.24 2.862-0.603 2.598-1.184zm4.646 7.158c1.242-0.605 1.396-2.098 0.662-2.01-0.742 0.072-2.105-2.147-2.912-2.465-0.801-0.321-1.453 1.336-1.453 2.057 0 0.723 0.451 1.225 1 1.074 0.549-0.133 1.446 1.92 2.703 1.344zm343.95 48.363c-0.637 0.33-3.744 0.695-4.148 0.088-0.418-0.613-1.033 1.258-1.691 1.562-0.664 0.297-0.299 1.93 0.684 1.422 0.695-0.338 3.633 1.283 6.027 2.791 0.477-2.363 0.889-4.75 1.283-7.156-0.864 0.457-1.751 1.075-2.155 1.293z" fill="url(#ac)"/>
	<circle cx="287.86" cy="257.2" r="57.734" fill="#314A7E"/>
	<path d="m302.49 257.22h-9.569v34.125h-14.185v-34.125h-6.746v-12.054h6.746v-7.801c0-5.578 2.648-14.313 14.311-14.313l10.507 0.045v11.7h-7.624c-1.251 0-3.01 0.625-3.01 3.285v7.095h10.807l-1.237 12.043z" fill="#F1F2F2"/>
	<circle cx="457.47" cy="103.96" r="57.734" fill="#30BF39"/>
		<path d="m474.92 109.23c-0.789-0.433-4.668-2.526-5.395-2.821-0.727-0.296-1.259-0.45-1.826 0.335-0.563 0.782-2.175 2.536-2.661 3.055-0.491 0.521-0.962 0.569-1.753 0.136-0.786-0.433-3.347-1.379-6.314-4.233-2.311-2.22-3.826-4.912-4.264-5.734-0.442-0.823-3e-3 -1.241 0.414-1.627 0.375-0.348 0.84-0.911 1.26-1.364 0.417-0.453 0.564-0.785 0.853-1.31s0.171-1-0.015-1.41-1.646-4.426-2.254-6.062c-0.61-1.633-1.29-1.391-1.758-1.409-0.47-0.016-1.003-0.103-1.539-0.125-0.538-0.02-1.417 0.149-2.181 0.925-0.768 0.776-2.918 2.643-3.066 6.601-0.149 3.956 2.589 7.886 2.971 8.435 0.381 0.553 5.226 9.128 13.276 12.654 8.054 3.526 8.098 2.452 9.573 2.373 1.48-0.078 4.83-1.769 5.572-3.62 0.741-1.852 0.801-3.461 0.612-3.803-0.187-0.343-0.716-0.565-1.505-0.996zm-14.769 19.064c-5.323 0-10.284-1.598-14.422-4.336l-10.077 3.226 3.275-9.737c-3.14-4.322-4.992-9.633-4.992-15.373 0-14.46 11.762-26.222 26.216-26.222 14.46 0 26.222 11.761 26.222 26.222-1e-3 14.456-11.762 26.22-26.222 26.22zm0-57.718c-17.393 0-31.495 14.101-31.495 31.497 0 5.951 1.652 11.516 4.52 16.264l-5.686 16.897 17.437-5.582c4.514 2.495 9.703 3.917 15.223 3.917 17.399 0 31.5-14.103 31.5-31.497 1e-3 -17.395-14.1-31.496-31.499-31.496z" clip-rule="evenodd" fill="#F1F2F2" fill-rule="evenodd"/>
	<circle cx="570.3" cy="78.973" r="57.733" fill="#F2780C"/>
	<path d="m596.26 71.519h-3.341c-2.047 0-3.845-1.731-3.982-3.726 0-10.637-8.575-18.633-19.286-18.633h-9.773c-10.702 0-19.379 8.617-19.388 19.253v21.126c0 10.636 8.687 19.247 19.388 19.247h20.871c10.711 0 19.369-8.611 19.369-19.247v-13.649c-1e-3 -2.125-1.715-4.371-3.858-4.371zm-35.894-7.453h9.937c2.733 0 4.968 2.236 4.968 4.968 0 2.733-2.235 4.969-4.968 4.969h-9.937c-2.735 0-4.969-2.235-4.969-4.969 0-2.731 2.234-4.968 4.969-4.968zm19.875 29.812h-19.875c-2.735 0-4.969-2.236-4.969-4.968s2.234-4.97 4.969-4.97h19.875c2.732 0 4.97 2.238 4.97 4.97-1e-3 2.733-2.238 4.968-4.97 4.968z" fill="#F1F2F2"/>
		<circle cx="358.69" cy="165.7" r="57.734" fill="#0A819F"/>
			<path d="m381.63 141.46c6.26 0.167 9.381 3.713 9.412 10.67 0 0.455-0.014 0.939-0.031 1.424-0.272 5.898-4.668 13.914-13.185 24.084-8.775 10.643-16.217 15.978-22.338 16.005-3.806 0-6.974-3.256-9.507-9.774l-2.666-8.944-2.621-8.927c-1.941-6.472-4.017-9.7-6.23-9.7-0.485 0-2.167 0.942-5.047 2.821l-3.077-3.64 4.773-3.953 4.687-3.913c4.198-3.362 7.395-5.198 9.574-5.455 0.305-0.03 0.596-0.047 0.898-0.047 4.484 0 7.307 3.228 8.395 9.7 0.621 3.684 1.137 6.686 1.545 8.992 0.395 2.3 0.73 3.906 1.001 4.834 1.486 6.106 3.092 9.183 4.803 9.215 1.335 0 3.365-2.002 6.109-5.986 2.697-4.094 4.137-7.125 4.334-9.095 0.046-0.411 0.077-0.774 0.077-1.122 0-2.685-1.471-4.016-4.411-4.016-1.486 0-3.062 0.318-4.76 0.939 3.031-9.382 8.882-14.08 17.533-14.112h0.732z" fill="#F1F2F2"/>
		<circle cx="252.8" cy="367.48" r="57.734" fill="#EA4C89"/>
			<path d="m252.8 332.26c-19.442 0-35.259 15.798-35.259 35.216 0 19.416 15.817 35.213 35.259 35.213s35.261-15.797 35.261-35.213c0-19.417-15.819-35.216-35.261-35.216zm23.2 16.621c4.024 4.984 6.468 11.279 6.581 18.14-1.339-0.275-7.006-1.333-13.78-1.333-2.185 0-4.485 0.11-6.791 0.396-0.196-0.473-0.389-0.945-0.593-1.422-0.599-1.406-1.243-2.803-1.91-4.178 10.423-4.294 15.452-10.254 16.493-11.603zm-23.2-11.108c7.512 0 14.38 2.791 19.626 7.389-0.831 1.133-5.335 6.761-15.386 10.559-4.652-8.504-9.745-15.547-10.957-17.182 2.16-0.5 4.409-0.766 6.717-0.766zm-12.797 2.886c1.027 1.415 6.128 8.533 10.9 16.97-12.808 3.366-24.18 3.586-26.926 3.586h-0.291c1.972-9.088 8.112-16.641 16.317-20.556zm-16.992 26.862c0-0.245 4e-3 -0.489 0.011-0.734 0.178 2e-3 0.441 2e-3 0.782 2e-3 3.697 0 16.528-0.306 29.752-4.229 0.803 1.569 1.566 3.162 2.276 4.755-0.333 0.096-0.664 0.192-0.991 0.299-14.888 4.809-23.071 17.539-24.331 19.62-4.663-5.256-7.499-12.158-7.499-19.713zm29.789 29.749c-6.833 0-13.138-2.315-18.17-6.193 0.852-1.668 7.029-12.79 23.345-18.468 0.011-4e-3 0.021-9e-3 0.033-0.012 4.09 10.652 5.824 19.59 6.299 22.363-3.54 1.487-7.429 2.31-11.507 2.31zm16.872-5.244c-0.399-2.292-2.004-10.671-5.709-20.889 2.078-0.323 4.1-0.45 5.996-0.45 6.227 0 11.096 1.363 12.228 1.708-1.347 8.115-5.992 15.137-12.515 19.631z" fill="#F1F2F2"/>
	<circle cx="684.81" cy="92.858" r="57.734" fill="#DF4723"/>
		<path d="m686.51 60.584c0.569 0.437 1.063 0.971 1.608 1.44 4.91 4.635 9.411 9.754 13.032 15.467 3.505 5.531 6.199 11.646 7.396 18.104 0.661 3.539 0.879 7.168 0.492 10.75-0.176 1.498-0.434 2.995-0.91 4.425-0.67 2.075-1.549 4.092-2.754 5.915-1.037 1.573-2.333 2.978-3.831 4.116-1.648 1.246-3.53 2.159-5.487 2.786-2.435 0.777-4.985 1.163-7.528 1.372-3.038 0.226-6.091 0.269-9.12-0.117-3.43-0.426-6.833-1.338-9.886-2.987-2.829-1.521-5.312-3.755-6.91-6.565-1.85-3.213-2.46-7.019-2.168-10.692 0.301-3.889 1.539-7.663 3.18-11.185 1.422-3.027 3.162-5.896 5.092-8.625 1.65-2.309 3.424-4.526 5.365-6.6 0.033-0.025 0.101-0.084 0.142-0.108-0.033 1.748 0.134 3.505 0.635 5.186 0.513 1.715 1.373 3.33 2.518 4.71 0.068 0.084 0.12 0.202 0.246 0.218 2.482-1.865 4.833-3.957 6.664-6.476 1.9-2.601 3.171-5.646 3.658-8.834 0.643-4.125 0.089-8.417-1.434-12.3z" fill="#F1F2F2"/>
	<circle cx="911.49" cy="337.12" r="57.733" fill="#7B519D"/>
			<g transform="matrix(1.4526 0 0 1.4526 -115.18 -97.148)" fill="#F1F2F2">
				<path d="m724.22 308.07c-1.281-1.033-2.651-1.959-3.999-2.905-2.689-1.889-5.148-2.036-7.155 1.003-1.127 1.706-2.703 1.781-4.352 1.032-4.548-2.062-8.057-5.238-10.115-9.859-0.909-2.044-0.898-3.877 1.23-5.324 1.127-0.764 2.263-1.67 2.173-3.34-0.118-2.18-5.41-9.46-7.499-10.229-0.865-0.318-1.726-0.297-2.604-2e-3 -4.9 1.647-6.928 5.676-4.985 10.446 5.797 14.232 15.999 24.139 30.041 30.187 0.801 0.343 1.69 0.481 2.142 0.604 3.196 0.033 6.941-3.048 8.024-6.106 1.039-2.939-1.161-4.106-2.901-5.507z"/>
				<path d="m708.47 279.34c10.266 1.578 15.001 6.46 16.308 16.801 0.12 0.955-0.235 2.392 1.128 2.419 1.425 0.027 1.081-1.388 1.093-2.345 0.121-9.739-8.371-18.767-18.233-19.1-0.744 0.107-2.284-0.513-2.379 1.154-0.064 1.125 1.233 0.94 2.083 1.071z"/>
				<path d="m710.48 282.18c-0.988-0.119-2.29-0.585-2.521 0.786-0.241 1.439 1.211 1.292 2.145 1.501 6.342 1.418 8.548 3.725 9.592 10.015 0.153 0.917-0.149 2.344 1.408 2.107 1.156-0.175 0.74-1.399 0.836-2.114 0.05-6.038-5.124-11.534-11.46-12.295z"/>
				<path d="m711.06 287.12c-0.66 0.017-1.306 0.088-1.549 0.792-0.363 1.052 0.402 1.304 1.181 1.429 2.601 0.417 3.969 1.951 4.23 4.545 0.07 0.704 0.517 1.274 1.197 1.194 0.942-0.112 1.027-0.95 0.998-1.748 0.048-2.914-3.246-6.282-6.057-6.212z"/>
			</g>
	<circle cx="787.48" cy="145.36" r="57.734" fill="#005CFF"/>
	<g fill="#F1F2F2">
		<path d="m780.88 143.07s6.485-0.484 6.485-8.09c0-7.609-5.305-11.322-12.027-11.322h-22.123v42.515h22.123s13.501 0.426 13.501-12.552c0 0 0.589-10.551-7.959-10.551zm-17.916-11.856h12.374s3.004 0 3.004 4.425c0 4.42-1.768 5.061-3.771 5.065h-11.606v-9.49zm11.802 27.403h-11.802v-11.362h12.374s4.479-0.057 4.479 5.838c0 4.92-3.277 5.472-5.051 5.524z"/>
		<rect x="797.7" y="126.16" width="17.544" height="5.234"/>
		<path d="m806.85 134.47c-16.35 0-16.331 16.334-16.331 16.334s-1.122 16.249 16.335 16.249c0 0 14.546 0.835 14.546-11.305h-7.48s0.246 4.572-6.816 4.572c0 0-7.483 0.5-7.483-7.396h22.03c-1e-3 0 2.408-18.454-14.801-18.454zm-7.313 12.78s0.911-6.555 7.479-6.555c6.569 0 6.486 6.555 6.486 6.555h-13.965z"/>
	</g>
	<circle cx="866.7" cy="229.56" r="57.734" fill="#EF712B"/>
		<path d="m825.41 242.91c-0.028 0.191-0.163 0.327-0.34 0.327-0.179 0-0.315-0.136-0.341-0.332l-0.623-4.651 0.623-4.729c0.025-0.197 0.162-0.333 0.341-0.333 0.177 0 0.312 0.136 0.34 0.333l0.739 4.733-0.739 4.652zm3.166 2.826c-0.029 0.202-0.177 0.343-0.357 0.343-0.177 0-0.33-0.141-0.354-0.343l-0.837-7.482 0.837-7.65c0.023-0.196 0.177-0.343 0.354-0.343 0.181 0 0.328 0.143 0.357 0.343l0.953 7.65-0.953 7.482zm3.418 1.265c-0.025 0.244-0.208 0.417-0.426 0.417-0.227 0-0.405-0.173-0.428-0.417l-0.795-8.743 0.795-9.075c0.02-0.247 0.201-0.423 0.428-0.423 0.218 0 0.4 0.176 0.426 0.423l0.899 9.075-0.899 8.743zm3.449 0.279c-0.024 0.279-0.242 0.489-0.501 0.489-0.266 0-0.483-0.21-0.504-0.489l-0.75-9.021 0.75-9.325c0.021-0.28 0.238-0.491 0.504-0.491 0.259 0 0.477 0.211 0.501 0.491l0.851 9.325-0.851 9.021zm3.468 0.073c-0.017 0.323-0.271 0.564-0.569 0.564-0.31 0-0.552-0.241-0.573-0.564l-0.708-9.094 0.708-8.65c0.021-0.322 0.264-0.562 0.573-0.562 0.305 0 0.553 0.24 0.569 0.558l0.805 8.655-0.805 9.093zm3.504 5e-3v-5e-3c-0.021 0.358-0.304 0.642-0.646 0.642s-0.627-0.284-0.646-0.637l-0.663-9.095 0.663-14.073c0.019-0.358 0.304-0.643 0.646-0.643 0.343 0 0.626 0.285 0.646 0.637l0.75 14.079-0.75 9.095zm3.478-5e-3v-5e-3c-0.022 0.396-0.336 0.71-0.724 0.71-0.382 0-0.694-0.314-0.714-0.71l-0.624-9.036 0.624-17.293c0.02-0.396 0.332-0.71 0.714-0.71 0.388 0 0.701 0.313 0.724 0.71l0.702 17.293-0.702 9.041zm3.605-0.141v-5e-3c-0.017 0.442-0.364 0.785-0.79 0.785-0.428 0-0.772-0.343-0.79-0.779l-0.578-8.943s0.578-18.735 0.578-18.74c0.018-0.436 0.362-0.784 0.79-0.784 0.426 0 0.773 0.349 0.79 0.784l0.655 18.74-0.655 8.942zm3.586-0.059c-0.018 0.479-0.395 0.857-0.862 0.857-0.47 0-0.846-0.377-0.862-0.852l-0.541-8.889 0.541-19.367c0.017-0.481 0.393-0.857 0.862-0.857 0.468 0 0.845 0.376 0.862 0.857l0.6 19.367-0.6 8.884zm3.607-0.079v-5e-3c-0.017 0.52-0.422 0.931-0.938 0.931-0.507 0-0.921-0.412-0.931-0.926l-0.496-8.805 0.492-18.871c0.014-0.525 0.428-0.932 0.935-0.932 0.516 0 0.921 0.407 0.938 0.932l0.557 18.871-0.557 8.805zm3.639-0.052v-7e-3c-8e-3 0.564-0.455 1-1.007 1-0.556 0-0.994-0.436-1.012-0.993l-0.447-8.753 0.447-18.182c0.018-0.563 0.456-1.004 1.012-1.004 0.552 0 0.999 0.441 1.007 1.004l0.507 18.186-0.507 8.749zm3.711-0.922l-0.046 0.857c-5e-3 0.3-0.131 0.57-0.321 0.765-0.197 0.191-0.468 0.313-0.755 0.313-0.332 0-0.626-0.153-0.828-0.394-0.147-0.175-0.241-0.401-0.253-0.64-2e-3 -0.01-2e-3 -0.024-2e-3 -0.039 0 0-0.413-8.684-0.413-8.699l0.408-21.425 5e-3 -0.206c2e-3 -0.376 0.203-0.71 0.501-0.902 0.166-0.111 0.363-0.175 0.582-0.175 0.216 0 0.422 0.067 0.59 0.186 0.291 0.192 0.481 0.519 0.486 0.892l0.455 21.641-0.409 7.826zm3.605 0.745v-0.011c-8e-3 0.633-0.525 1.148-1.152 1.148-0.63 0-1.146-0.516-1.152-1.143l-0.238-4.225-0.232-4.336 0.471-23.483v-0.118c2e-3 -0.356 0.169-0.675 0.428-0.891 0.198-0.163 0.452-0.261 0.725-0.261 0.218 0 0.418 0.061 0.592 0.161 0.326 0.206 0.555 0.569 0.566 0.985l0.509 23.606-0.517 8.568zm31.164 1.16h-29.044c-0.628-0.064-1.123-0.563-1.134-1.206v-33.248c0.011-0.612 0.222-0.927 1.011-1.231 2.033-0.788 4.337-1.253 6.705-1.253 9.658 0 17.57 7.409 18.41 16.847 1.244-0.52 2.616-0.815 4.052-0.815 5.783 0 10.472 4.691 10.472 10.478-1e-3 5.787-4.689 10.428-10.472 10.428z" fill="#F1F2F2"/>
	<circle cx="299.34" cy="590.33" r="57.733" fill="#00AFF0"/>
		<path d="m328.27 594.9c0.237-1.491 0.359-3.014 0.359-4.57 0-16.18-13.11-29.289-29.287-29.289-1.557 0-3.082 0.125-4.572 0.359-2.699-1.669-5.881-2.636-9.294-2.636-9.773 0-17.698 7.925-17.698 17.703 0 3.41 0.964 6.588 2.632 9.295-0.229 1.493-0.355 3.011-0.355 4.567 0 16.178 13.11 29.288 29.285 29.288 1.554 0 3.081-0.121 4.571-0.357 2.702 1.665 5.884 2.634 9.296 2.634 9.775 0 17.7-7.928 17.7-17.697-1e-3 -3.412-0.966-6.596-2.637-9.297zm-15.023 8.752c-1.238 1.784-3.058 3.178-5.438 4.177-2.383 1.005-5.199 1.507-8.454 1.507-3.896 0-7.124-0.68-9.672-2.062-1.809-0.985-3.275-2.306-4.403-3.959-1.135-1.651-1.707-3.268-1.707-4.847 0-0.926 0.356-1.736 1.044-2.398 0.699-0.661 1.597-0.993 2.66-0.993 0.87 0 1.613 0.259 2.222 0.78 0.602 0.518 1.109 1.268 1.521 2.263 0.498 1.153 1.039 2.116 1.61 2.884 0.569 0.761 1.371 1.395 2.408 1.89 1.029 0.498 2.394 0.745 4.104 0.745 2.34 0 4.233-0.504 5.678-1.506 1.456-1.006 2.153-2.231 2.153-3.715 0-1.183-0.377-2.118-1.146-2.848-0.782-0.744-1.789-1.308-3.04-1.703-1.254-0.398-2.938-0.819-5.048-1.264-2.833-0.617-5.203-1.337-7.125-2.165-1.92-0.83-3.452-1.962-4.585-3.398-1.136-1.446-1.702-3.244-1.702-5.373 0-2.031 0.6-3.853 1.792-5.429 1.202-1.585 2.933-2.801 5.19-3.646 2.252-0.844 4.902-1.268 7.942-1.268 2.423 0 4.525 0.28 6.304 0.84 1.771 0.562 3.25 1.308 4.427 2.238 1.176 0.931 2.042 1.911 2.587 2.94 0.548 1.031 0.823 2.043 0.823 3.023 0 0.917-0.354 1.749-1.048 2.475-0.691 0.729-1.573 1.099-2.604 1.096-0.931 0-1.66-0.211-2.167-0.666-0.494-0.442-1.011-1.141-1.572-2.118-0.711-1.36-1.556-2.421-2.542-3.182-0.962-0.742-2.547-1.133-4.75-1.127-2.043 0-3.672 0.417-4.905 1.234-1.241 0.826-1.833 1.786-1.837 2.913 3e-3 0.707 0.207 1.303 0.615 1.809 0.414 0.517 0.993 0.958 1.732 1.338 0.743 0.378 1.497 0.671 2.255 0.885 0.766 0.215 2.04 0.528 3.808 0.945 2.215 0.482 4.229 1.016 6.038 1.596 1.806 0.585 3.343 1.292 4.615 2.133 1.283 0.838 2.287 1.903 3.001 3.196 0.721 1.292 1.076 2.87 1.076 4.728 3e-3 2.237-0.62 4.249-1.86 6.032z" fill="#F1F2F2"/>
	<circle cx="483.16" cy="735.27" r="57.734" fill="#E52D27"/>
		<path d="m517.67 721.44c0-5.699-4.617-10.319-10.316-10.319h-48.387c-5.7 0-10.316 4.62-10.316 10.319v27.673c0 5.697 4.617 10.318 10.316 10.318h48.387c5.699 0 10.316-4.621 10.316-10.318v-27.673zm-41.411 25.51v-25.988l19.711 12.991-19.711 12.997z" clip-rule="evenodd" fill="#F1F2F2" fill-rule="evenodd"/>
	<path d="m828.08 566.66c0-31.886 25.847-57.732 57.733-57.732 31.885 0 57.732 25.847 57.732 57.732 0 31.888-25.848 57.735-57.732 57.735-31.886 1e-3 -57.733-25.847-57.733-57.735z" fill="#339DC3"/>
		<path d="m921.44 544.55c-2.62 1.162-5.44 1.949-8.397 2.302 3.019-1.81 5.336-4.672 6.431-8.089-2.825 1.677-5.955 2.893-9.285 3.549-2.668-2.843-6.468-4.619-10.675-4.619-8.074 0-14.622 6.548-14.622 14.623 0 1.146 0.129 2.262 0.381 3.332-12.152-0.609-22.925-6.432-30.137-15.278-1.261 2.158-1.981 4.673-1.981 7.352 0 5.071 2.583 9.549 6.505 12.17-2.396-0.075-4.651-0.733-6.622-1.83-3e-3 0.062-3e-3 0.124-3e-3 0.185 0 7.084 5.044 12.993 11.731 14.336-1.226 0.336-2.52 0.514-3.852 0.514-0.943 0-1.86-0.091-2.752-0.261 1.86 5.808 7.261 10.035 13.658 10.153-5.005 3.922-11.308 6.26-18.159 6.26-1.18 0-2.345-0.068-3.486-0.204 6.468 4.149 14.154 6.571 22.41 6.571 26.896 0 41.603-22.28 41.603-41.604 0-0.634-0.014-1.266-0.041-1.892 2.857-2.061 5.334-4.638 7.293-7.57z" fill="#F1F2F2"/>
	<circle cx="919.94" cy="454.09" r="57.733" fill="#2C4762"/>
		<path d="m923.67 434.27v-15.253h-9.846c-0.221 0.557-0.33 1.234-0.33 1.914-0.102 0.332-0.223 0.571-0.223 0.9-1.01 5.655-3.949 9.602-8.924 11.758-1.477 0.681-2.831 0.782-4.295 0.681v12.295h7.234c0.119 17.303 0.119 26.224 0.119 26.677v1.024c0.908 7.549 4.855 12.074 11.861 13.775 2.818 0.781 5.864 1.129 8.923 1.129 3.947-0.119 7.791-0.799 11.635-2.03v-14.471c-2.246 0.679-4.294 1.25-6.102 1.809-3.497 1.022-6.437 0.346-8.819-1.914-0.224-0.346-0.558-0.8-0.675-1.251-0.333-1.807-0.546-3.724-0.546-5.531v-19.217h15.689v-12.295h-15.701z" fill="#F1F2F2"/>
	<circle cx="378.31" cy="679.83" r="57.733" fill="#B31217"/>
		<path d="m382.82 695.47c-4.227-0.325-6.002-2.422-9.315-4.435-1.823 9.559-4.049 18.721-10.643 23.505-2.038-14.446 2.987-25.294 5.321-36.811-3.978-6.698 0.479-20.178 8.869-16.856 10.327 4.085-8.94 24.9 3.994 27.501 13.504 2.713 19.017-23.432 10.643-31.936-12.099-12.277-35.22-0.279-32.377 17.297 0.693 4.298 5.133 5.602 1.774 11.531-7.744-1.713-10.054-7.821-9.758-15.965 0.479-13.328 11.976-22.66 23.508-23.952 14.583-1.632 28.271 5.355 30.161 19.073 2.125 15.484-6.584 32.253-22.177 31.048z" fill="#F1F2F2"/>
	<circle cx="255.72" cy="482.81" r="57.733" fill="#83358B"/>
		<path d="m278.19 470.31c-0.275 0.079-0.845 0.55-1.723 1.393l-3.076 3.213-3.849 4.266c-1.342 1.52-2.558 3.039-3.68 4.544-1.121 1.487-2.112 2.806-2.958 3.961-0.857 1.139-1.396 2.014-1.639 2.646-0.055 0.315-0.085 1.221-0.085 2.707 0 1.504 0.024 3.142 0.042 4.911 0.033 1.777 0.054 3.434 0.088 5.022 0.028 1.566 0.061 2.611 0.123 3.135 0.215 0.079 0.763 0.111 1.65 0.111h2.78c1.006 0 1.947 0.033 2.833 0.063 0.89 0.046 1.492 0.109 1.82 0.207l-0.084 4.196c-0.318 0-1.038-0.016-2.167-0.063-1.122-0.032-2.444-0.051-3.934-0.051h-8.88c-0.604 0-1.512 0.019-2.706 0.051-1.186 0.048-2.456 0.083-3.82 0.124-1.36 0.037-2.642 0.066-3.845 0.066h-2.707l0.485-3.99h1.68c0.815 0 1.64-0.016 2.484-0.05 0.846-0.015 1.652-0.138 2.411-0.33 0.772-0.206 1.322-0.572 1.681-1.098 0.159-0.232 0.265-1.044 0.317-2.437 0.054-1.381 0.076-2.98 0.076-4.752 0-1.793 0.017-3.496 0.029-5.117 0.022-1.612 0.043-2.707 0.076-3.25 0.062-0.33-0.266-1.135-0.996-2.42-0.727-1.285-1.616-2.865-2.672-4.735l-3.436-6.081-3.565-6.306-3.266-4.988c-0.994-1.492-1.777-2.508-2.336-3.041h-8.585v-5.308h28.28v0.399h0.075l-0.075 0.917v3.991h-8.637l3.246 6.084 3.32 6.223 2.948 5.512 2.294 4.327 11.514-14.61h-6.999l-0.899-5.307h24.961l-0.201 0.351h0.126l-1.86 3.549h-0.084l-0.74 1.407h-4.355c-0.266 0.175-0.53 0.286-0.784 0.337-0.252 0.079-0.484 0.14-0.696 0.221z" fill="#F1F2F2"/>
	<circle cx="601.02" cy="749.92" r="57.733" fill="#4060A5"/>
		<path d="m624.42 720.66h-46.806c-3.228 0-5.858 2.629-5.858 5.859v46.804c0 3.229 2.63 5.858 5.858 5.858h46.806c3.23 0 5.857-2.63 5.857-5.858v-46.804c0-3.23-2.627-5.859-5.857-5.859zm-23.403 17.559c6.445 0 11.703 5.257 11.703 11.701 0 6.442-5.258 11.702-11.703 11.702-6.443 0-11.702-5.26-11.702-11.702 0-6.444 5.258-11.701 11.702-11.701zm-21.946 35.104c-0.871 0-1.457-0.586-1.457-1.458v-24.875h6.145c-0.301 0.885-0.301 2.061-0.301 2.93 0 9.66 7.9 17.561 17.558 17.561 9.659 0 17.561-7.9 17.561-17.561 0-0.869 0-2.045-0.3-2.93h6.143v24.875c0 0.872-0.585 1.458-1.456 1.458h-43.893zm45.349-39.488c0 0.869-0.585 1.456-1.456 1.456h-5.858c-0.871 0-1.457-0.587-1.457-1.456v-5.859c0-0.871 0.586-1.456 1.457-1.456h5.858c0.871 0 1.456 0.585 1.456 1.456v5.859z" fill="#F1F2F2"/>
	<circle cx="717.3" cy="724.25" r="57.734" fill="#008266"/>
	<path d="m722.42 714.63c-3.185-0.188-6.859 5e-3 -11.115 0.731l9.816 17.695 39.006-10.711c-0.419-1.001-1.034-1.976-1.849-2.92-4.036-4.676-12.789-8.842-22.324-10.723v-2e-3c-9.353-2.194-19.482-2.102-29.857-0.536-0.373 0.058-0.746 0.117-1.117 0.181l-3.448-6.39c-3.355 0.45-6.511 1.148-9.434 2.077l3.286 6.872c-5.367 2.078-9.769 5.039-12.945 8.601-5.239 5.963-7.31 13.455-4.792 20.753 0.505 1.472 1.189 2.869 2.034 4.179l39.004-10.715-10.83-20.06c0.373-0.069 0.751-0.141 1.137-0.21 17.516-3.127 27.096 1.7 32.342 6.839l-13.343 3.234-5.571-8.895zm-31.585 17.9c-1.205-5.496-0.246-11.629 7.375-15.714l5.969 12.479-13.344 3.235z" fill="#F1F2F2"/>
	<circle cx="814.49" cy="660.4" r="57.733" fill="#DC4335"/>
	<g fill="#F1F2F2">
		<path d="m801.15 657.06v8.002h13.237c-0.533 3.434-4.001 10.07-13.237 10.07-7.97 0-14.471-6.603-14.471-14.738 0-8.137 6.501-14.736 14.471-14.736 4.534 0 7.569 1.933 9.302 3.6l6.337-6.102c-4.067-3.802-9.337-6.103-15.639-6.103-12.904 0-23.339 10.438-23.339 23.341 0 12.902 10.435 23.339 23.339 23.339 13.471 0 22.406-9.468 22.406-22.807 0-1.533-0.166-2.699-0.366-3.866h-22.04z"/>
		<path d="m851.17 657.06h-6.67v-6.668h-6.669v6.668h-6.667v6.669h6.667v6.668h6.669v-6.668h6.67v-6.669z"/>
	</g>
</svg>